ffmpeg started on 2023-02-26 at 21:55:51
Report written to "D:/java/GitHub/pornMagnetSpringBoot/jiuse911Modeul/Logs/2023-02-26_21-53-24-729_ffreport.log"
Command line:
"D:\\java\\GitHub\\pornMagnetSpringBoot\\ffmpeg.exe" -loglevel warning -i "concat:000.ts|001.ts|002.ts|003.ts|004.ts|005.ts|006.ts|007.ts|008.ts|009.ts|010.ts|011.ts|012.ts|013.ts|014.ts|015.ts|016.ts|017.ts|018.ts|019.ts|020.ts|021.ts|022.ts|023.ts|024.ts|025.ts|026.ts|027.ts|028.ts|029.ts|030.ts|031.ts|032.ts|033.ts|034.ts|035.ts|036.ts|037.ts|038.ts|039.ts|040.ts|041.ts|042.ts|043.ts|044.ts|045.ts|046.ts|047.ts|048.ts|049.ts|050.ts|051.ts|052.ts|053.ts|054.ts|055.ts|056.ts|057.ts|058.ts|059.ts|060.ts|061.ts|062.ts|063.ts|064.ts|065.ts|066.ts|067.ts|068.ts|069.ts|070.ts|071.ts|072.ts|073.ts|074.ts|075.ts|076.ts|077.ts|078.ts|079.ts|080.ts|081.ts|082.ts|083.ts|084.ts|085.ts|086.ts|087.ts|088.ts|089.ts|090.ts|091.ts|092.ts|093.ts|094.ts|095.ts|096.ts|097.ts|098.ts|099.ts|100.ts|101.ts|102.ts|103.ts|104.ts|105.ts|106.ts|107.ts|108.ts|109.ts|110.ts|111.ts|112.ts|113.ts|114.ts|115.ts|116.ts|117.ts|" -map "0:v?" -map "0:a?" -map "0:s?" -metadata "date=2023-02-26T21:55:50.9986066+08:00" -metadata "encoding_tool=" -metadata "title=" -metadata "copyright=" -metadata "comment=" -metadata:s:a:0 "handler_name=" -metadata:s:a:0 "handler=" -c copy -y -bsf:a aac_adtstoasc "D:\\java\\GitHub\\pornMagnetSpringBoot\\Downloads\\\xd4\xcf\xce\xb6\xca\xae\xd7\xe3\xc2\xb6\xc1\xb3\xc3\xc0\xc9\xd9\xb8\xbe\xd3\xeb\xcd\xac\xbe\xd3\xd0\xa1\xbb\xef\xbd\xe3\xb5\xdc\xc1\xb5\xbc\xd2\xd6\xd0\xc9\xb3\xb7\xa2\xc9\xcf\xbc\xa4\xc7\xe9\xe0\xcb\xc5\xda\xd4\xc2\xbe\xad\xc0\xb4\xc1\xcb\xd2\xb2\xb2\xbb\xd0\xdd\xcf\xa2.mp4"
ffmpeg version N-94813-g85386c36e3-ffmpeg-for-N_m3u8DL-CLI Copyright (c) 2000-2019 the FFmpeg developers
  built with gcc 8.2.0 (GCC)
  libavutil      56. 35.100 / 56. 35.100
  libavcodec     58. 56.101 / 58. 56.101
  libavformat    58. 32.104 / 58. 32.104
  libavfilter     7. 58.102 /  7. 58.102
  libavresample   4.  0.  0 /  4.  0.  0
  libswresample   3.  6.100 /  3.  6.100
Input #0, mpegts, from 'concat:000.ts|001.ts|002.ts|003.ts|004.ts|005.ts|006.ts|007.ts|008.ts|009.ts|010.ts|011.ts|012.ts|013.ts|014.ts|015.ts|016.ts|017.ts|018.ts|019.ts|020.ts|021.ts|022.ts|023.ts|024.ts|025.ts|026.ts|027.ts|028.ts|029.ts|030.ts|031.ts|032.ts|033.ts|034.ts|035.ts|036.ts|037.ts|038.ts|039.ts|040.ts|041.ts|042.ts|043.ts|044.ts|045.ts|046.ts|047.ts|048.ts|049.ts|050.ts|051.ts|052.ts|053.ts|054.ts|055.ts|056.ts|057.ts|058.ts|059.ts|060.ts|061.ts|062.ts|063.ts|064.ts|065.ts|066.ts|067.ts|068.ts|069.ts|070.ts|071.ts|072.ts|073.ts|074.ts|075.ts|076.ts|077.ts|078.ts|079.ts|080.ts|081.ts|082.ts|083.ts|084.ts|085.ts|086.ts|087.ts|088.ts|089.ts|090.ts|091.ts|092.ts|093.ts|094.ts|095.ts|096.ts|097.ts|098.ts|099.ts|100.ts|101.ts|102.ts|103.ts|104.ts|105.ts|106.ts|107.ts|108.ts|109.ts|110.ts|111.ts|112.ts|113.ts|114.ts|115.ts|116.ts|117.ts|':
  Duration: 00:29:15.23, start: 1.524133, bitrate: 244 kb/s
  Program 1 
    Metadata:
      service_name    : Service01
      service_provider: FFmpeg
    Stream #0:0[0x100]: Video: h264 ([27][0][0][0] / 0x001B), yuv420p(progressive), 202x360, 14.99 fps, 14.99 tbr, 90k tbn, 29.97 tbc
    Stream #0:1[0x101](und): Audio: aac ([15][0][0][0] / 0x000F), 48000 Hz, mono, fltp, 73 kb/s
Output #0, mp4, to 'D:\java\GitHub\pornMagnetSpringBoot\Downloads\韵味十足露脸美少妇与同居小伙姐弟恋家中沙发上激情嗨炮月经来了也不休息.mp4':
  Metadata:
    date            : 2023-02-26T21:55:50.9986066+08:00
    encoder         : Lavf58.32.104
    Stream #0:0: Video: h264 (avc1 / 0x31637661), yuv420p(progressive), 202x360, q=2-31, 14.99 fps, 14.99 tbr, 90k tbn, 90k tbc
    Stream #0:1(und): Audio: aac (mp4a / 0x6134706D), 48000 Hz, mono, fltp, 73 kb/s
Stream mapping:
  Stream #0:0 -> #0:0 (copy)
  Stream #0:1 -> #0:1 (copy)
Press [q] to stop, [?] for help
frame=26302 fps=0.0 q=-1.0 Lsize=   48253kB time=00:29:15.25 bitrate= 225.2kbits/s speed=4.77e+03x    
video:32409kB audio:14883kB subtitle:0kB other streams:0kB global headers:0kB muxing overhead: 2.033269%
